<svg width="353" height="48" viewBox="0 0 353 48" fill="none" xmlns="http://www.w3.org/2000/svg">
<path d="M0 8C0 3.58172 3.58172 0 8 0H345C349.418 0 353 3.58172 353 8V40C353 44.4183 349.418 48 345 48H8C3.58172 48 0 44.4183 0 40V8Z" fill="#FBE300"/>
<path d="M116.5 15C122.3 15 127.001 18.664 127.001 23.185C127.001 27.705 122.3 31.369 116.501 31.369C115.924 31.368 115.347 31.3312 114.774 31.259L110.366 34.142C109.865 34.407 109.688 34.378 109.894 33.729L110.786 30.051C107.906 28.591 106.001 26.061 106.001 23.185C106.001 18.665 110.701 15 116.501 15M122.409 23.06L123.879 21.636C123.964 21.5479 124.011 21.4303 124.011 21.308C124.011 21.1858 123.963 21.0683 123.878 20.9804C123.793 20.8925 123.677 20.8411 123.555 20.8369C123.433 20.8327 123.314 20.8761 123.223 20.958L121.295 22.824V21.282C121.295 21.1568 121.245 21.0368 121.157 20.9482C121.068 20.8597 120.948 20.81 120.823 20.81C120.698 20.81 120.578 20.8597 120.489 20.9482C120.401 21.0368 120.351 21.1568 120.351 21.282V23.839C120.334 23.9121 120.334 23.9879 120.351 24.061V25.5C120.351 25.6252 120.401 25.7452 120.489 25.8338C120.578 25.9223 120.698 25.972 120.823 25.972C120.948 25.972 121.068 25.9223 121.157 25.8338C121.245 25.7452 121.295 25.6252 121.295 25.5V24.137L121.722 23.724L123.15 25.757C123.186 25.8078 123.231 25.851 123.283 25.8842C123.336 25.9175 123.394 25.9401 123.455 25.9508C123.516 25.9615 123.579 25.96 123.639 25.9465C123.7 25.933 123.757 25.9077 123.808 25.872C123.859 25.8363 123.902 25.791 123.935 25.7387C123.968 25.6863 123.991 25.6279 124.002 25.5668C124.012 25.5057 124.011 25.4431 123.997 25.3826C123.984 25.322 123.959 25.2648 123.923 25.214L122.409 23.06ZM119.451 24.984H117.991V21.297C117.985 21.1757 117.933 21.0612 117.845 20.9774C117.758 20.8935 117.641 20.8467 117.519 20.8467C117.398 20.8467 117.281 20.8935 117.194 20.9774C117.106 21.0612 117.054 21.1757 117.048 21.297V25.456C117.048 25.716 117.258 25.928 117.519 25.928H119.451C119.576 25.928 119.696 25.8783 119.785 25.7898C119.873 25.7012 119.923 25.5812 119.923 25.456C119.923 25.3308 119.873 25.2108 119.785 25.1222C119.696 25.0337 119.576 24.984 119.451 24.984ZM113.594 23.893L114.29 22.185L114.928 23.892L113.594 23.893ZM116.117 24.38L116.119 24.364C116.119 24.2451 116.073 24.1308 115.992 24.044L114.946 21.244C114.902 21.1106 114.819 20.9937 114.707 20.909C114.595 20.8243 114.459 20.7758 114.319 20.77C114.178 20.7699 114.04 20.8126 113.923 20.8924C113.807 20.9721 113.717 21.0853 113.666 21.217L112.004 25.292C111.957 25.4079 111.957 25.5379 112.006 25.6533C112.054 25.7687 112.147 25.8602 112.262 25.9075C112.378 25.9548 112.508 25.9542 112.624 25.9057C112.739 25.8572 112.831 25.7649 112.878 25.649L113.21 24.836H115.28L115.578 25.636C115.598 25.6958 115.63 25.7509 115.672 25.7981C115.714 25.8452 115.766 25.8835 115.823 25.9105C115.88 25.9376 115.942 25.9529 116.005 25.9557C116.068 25.9584 116.131 25.9484 116.19 25.9263C116.249 25.9042 116.303 25.8704 116.349 25.8271C116.395 25.7837 116.432 25.7315 116.457 25.6737C116.483 25.6158 116.496 25.5535 116.497 25.4903C116.498 25.4272 116.486 25.3645 116.462 25.306L116.117 24.38ZM112.794 21.302C112.794 21.24 112.782 21.1786 112.759 21.1213C112.735 21.064 112.7 21.0119 112.657 20.968C112.613 20.9241 112.561 20.8894 112.504 20.8657C112.446 20.842 112.385 20.8299 112.323 20.83H109.078C108.953 20.83 108.833 20.8797 108.744 20.9682C108.656 21.0568 108.606 21.1768 108.606 21.302C108.606 21.4272 108.656 21.5472 108.744 21.6358C108.833 21.7243 108.953 21.774 109.078 21.774H110.238V25.51C110.238 25.6352 110.288 25.7552 110.376 25.8438C110.465 25.9323 110.585 25.982 110.71 25.982C110.835 25.982 110.955 25.9323 111.044 25.8438C111.132 25.7552 111.182 25.6352 111.182 25.51V21.774H112.322C112.384 21.7743 112.446 21.7622 112.503 21.7386C112.56 21.715 112.612 21.6802 112.656 21.6363C112.7 21.5925 112.735 21.5403 112.759 21.4829C112.782 21.4256 112.794 21.3641 112.794 21.302Z" fill="#3B1E1E"/>
<path d="M144.297 18.75C144.281 22.875 143.016 26.5469 137.906 29.0625L137.094 27.9531C139.625 26.7109 141.133 25.2031 141.969 23.4219L137.391 23.8594L137.172 22.5781L142.422 22.2188C142.633 21.5078 142.758 20.75 142.812 19.9531H137.906V18.75H144.297ZM147.922 17.3281V22.9219H150.094V24.1406H147.922V31.3125H146.438V17.3281H147.922ZM157.805 18.75C157.789 22.875 156.524 26.5469 151.414 29.0625L150.602 27.9531C153.133 26.7109 154.641 25.2031 155.477 23.4219L150.899 23.8594L150.68 22.5781L155.93 22.2188C156.141 21.5078 156.266 20.75 156.321 19.9531H151.414V18.75H157.805ZM161.43 17.3281V22.9219H163.602V24.1406H161.43V31.3125H159.946V17.3281H161.43ZM170.407 18.1719C173.407 18.1875 175.579 19.6562 175.579 21.8906C175.579 23.9922 173.758 25.375 171.141 25.5938V28.3438H176.844V29.5781H164.032V28.3438H169.673V25.5938C167.071 25.375 165.251 23.9922 165.251 21.8906C165.251 19.6562 167.423 18.1875 170.407 18.1719ZM170.407 19.3906C168.251 19.375 166.688 20.375 166.688 21.8906C166.688 23.4688 168.251 24.4375 170.407 24.4531C172.579 24.4375 174.141 23.4688 174.141 21.8906C174.141 20.375 172.579 19.375 170.407 19.3906ZM190.353 28.4062V29.6562H177.54V28.4062H183.181V25.9531H179.103V21.5H187.321V19.5312H179.071V18.3125H188.79V22.6875H180.571V24.7344H189.118V25.9531H184.649V28.4062H190.353ZM199.775 20.8906C199.759 23.4531 201.306 26.0156 203.478 26.9844L202.588 28.1562C200.978 27.3906 199.705 25.8203 199.056 23.9062C198.4 25.9531 197.111 27.6484 195.431 28.4688L194.525 27.2188C196.728 26.2344 198.275 23.5625 198.275 20.8906V18.5H199.775V20.8906ZM206.228 17.3281V31.3594H204.744V17.3281H206.228ZM213.033 19.8438C213.033 21.625 214.268 23.3281 216.408 24.0469L215.658 25.2031C214.072 24.6562 212.908 23.5625 212.299 22.1875C211.689 23.7031 210.478 24.8906 208.83 25.4688L208.033 24.3125C210.221 23.5625 211.533 21.7656 211.549 19.8281V19.4531H208.471V18.25H216.049V19.4531H213.033V19.8438ZM219.143 17.3281V20.9219H221.174V22.1719H219.143V25.7656H217.658V17.3281H219.143ZM219.143 26.4531V31.3281H217.658V27.6562H209.893V26.4531H219.143ZM232.557 17.3281V23H234.807V24.2344H232.557V31.3281H231.088V17.3281H232.557ZM229.869 19.5156V20.7344H221.573V19.5156H225.026V17.5156H226.51V19.5156H229.869ZM225.776 21.7656C227.776 21.7656 229.244 23.1094 229.26 25.0156C229.244 26.9375 227.776 28.2656 225.776 28.2812C223.76 28.2656 222.291 26.9375 222.291 25.0156C222.291 23.1094 223.76 21.7656 225.776 21.7656ZM225.776 22.9844C224.588 22.9844 223.698 23.8125 223.713 25.0156C223.698 26.2344 224.588 27.0469 225.776 27.0312C226.963 27.0469 227.838 26.2344 227.838 25.0156C227.838 23.8125 226.963 22.9844 225.776 22.9844ZM246.799 17.3281V31.3281H245.299V17.3281H246.799ZM242.628 18.8281C242.628 22.9219 240.878 26.4844 236.081 28.7812L235.299 27.5781C239.026 25.8047 240.838 23.2812 241.128 20.0156H235.971V18.8281H242.628Z" fill="#3B1E1E"/>
</svg>
